<?xml version="1.0" encoding="UTF-8"?>
<!DOCTYPE svg PUBLIC "-//W3C//DTD SVG 1.1//EN" "http://www.w3.org/Graphics/SVG/1.1/DTD/svg11.dtd">
<svg xmlns="http://www.w3.org/2000/svg" version="1.1" width="512px" height="512px" style="shape-rendering:geometricPrecision; text-rendering:geometricPrecision; image-rendering:optimizeQuality; fill-rule:evenodd; clip-rule:evenodd" xmlns:xlink="http://www.w3.org/1999/xlink">
<g><path style="opacity:0.976" fill="#010002" d="M 511.5,256.5 C 511.5,268.167 511.5,279.833 511.5,291.5C 500.91,336.509 472.577,362.342 426.5,369C 387.835,369.5 349.168,369.667 310.5,369.5C 310.5,378.167 310.5,386.833 310.5,395.5C 328.845,395.167 347.179,395.5 365.5,396.5C 333.477,431.188 301.144,465.521 268.5,499.5C 235.291,465.459 202.291,431.292 169.5,397C 187.68,395.514 206.014,395.014 224.5,395.5C 224.5,386.833 224.5,378.167 224.5,369.5C 179.832,369.667 135.165,369.5 90.5,369C 41.1744,363.377 10.8411,336.544 -0.5,288.5C -0.5,278.167 -0.5,267.833 -0.5,257.5C 7.4243,221.894 28.4243,197.228 62.5,183.5C 64.0756,139.093 86.909,114.426 131,109.5C 145.928,110.3 159.262,115.3 171,124.5C 203.657,67.2372 252.823,42.7372 318.5,51C 372.751,62.9141 408.251,95.4141 425,148.5C 434.318,150.56 443.484,153.394 452.5,157C 476.842,172.178 493.675,193.345 503,220.5C 507.175,232.296 510.009,244.296 511.5,256.5 Z"/></g>
<g><path style="opacity:1" fill="#fdfdfd" d="M 425.5,340.5 C 387.167,340.5 348.833,340.5 310.5,340.5C 310.822,334.642 310.489,328.975 309.5,323.5C 281.5,323.5 253.5,323.5 225.5,323.5C 225.5,329.5 225.5,335.5 225.5,341.5C 180.165,341.667 134.832,341.5 89.5,341C 55.1269,335.96 34.2935,316.46 27,282.5C 24.705,246.912 39.8716,222.078 72.5,208C 79.7752,206.177 87.1086,204.677 94.5,203.5C 93.3131,194.488 91.9798,185.488 90.5,176.5C 96.0326,147.572 113.366,135.072 142.5,139C 151.011,141.845 158.178,146.679 164,153.5C 169.087,161.341 174.42,169.008 180,176.5C 183.619,166.929 186.952,157.263 190,147.5C 207.825,105.675 239.325,82.1754 284.5,77C 333.146,75.3985 368.979,95.8985 392,138.5C 399.343,153.051 402.51,168.384 401.5,184.5C 425.194,181.117 445.028,188.117 461,205.5C 482.458,234.124 488.791,265.79 480,300.5C 469.285,324.056 451.118,337.39 425.5,340.5 Z"/></g>
<g><path style="opacity:1" fill="#020202" d="M 96.5,290.5 C 99.5,290.5 102.5,290.5 105.5,290.5C 105.5,260.5 105.5,230.5 105.5,200.5C 114.888,197.5 124.555,195 134.5,193C 157.293,188.73 179.96,184.063 202.5,179C 208.802,177.841 215.136,177.008 221.5,176.5C 221.667,215.835 221.5,255.168 221,294.5C 211.774,312.698 196.94,320.198 176.5,317C 161.377,310.395 157.877,299.895 166,285.5C 175.725,274.646 187.892,269.312 202.5,269.5C 202.5,251.5 202.5,233.5 202.5,215.5C 197.804,215.671 193.137,216.171 188.5,217C 167.322,221.834 146.155,226.667 125,231.5C 124.667,258.167 124.333,284.833 124,311.5C 120.166,324.998 111.333,333.498 97.5,337C 89.3099,338.965 81.3099,338.299 73.5,335C 64.9787,329.771 62.1453,322.271 65,312.5C 71.2671,299.116 81.7671,291.782 96.5,290.5 Z"/></g>
<g><path style="opacity:1" fill="#0f0f0f" d="M 304.5,200.5 C 311.347,199.814 318.014,198.814 324.5,197.5C 355.513,195.921 386.513,196.421 417.5,199C 423.5,200.667 429.5,202.333 435.5,204C 440.579,207.99 443.745,213.157 445,219.5C 448.647,242.611 448.313,265.611 444,288.5C 442.402,293.532 439.902,298.032 436.5,302C 426.819,305.529 416.819,307.863 406.5,309C 372.429,311.451 338.429,310.785 304.5,307C 299.349,305.951 294.516,304.117 290,301.5C 284.28,292.339 280.946,282.339 280,271.5C 279.168,256.47 279.501,241.47 281,226.5C 282.483,219.864 284.817,213.531 288,207.5C 292.38,202.561 297.88,200.227 304.5,200.5 Z"/></g>
<g><path style="opacity:1" fill="#555655" d="M 324.5,197.5 C 318.014,198.814 311.347,199.814 304.5,200.5C 310.854,198.369 317.521,197.369 324.5,197.5 Z"/></g>
<g><path style="opacity:1" fill="#b7b7b7" d="M 105.5,200.5 C 105.5,230.5 105.5,260.5 105.5,290.5C 102.5,290.5 99.5,290.5 96.5,290.5C 98.9479,289.527 101.615,289.194 104.5,289.5C 104.169,259.662 104.502,229.995 105.5,200.5 Z"/></g>
<g><path style="opacity:1" fill="#918c8b" d="M 351.5,203.5 C 340,204.728 328.333,205.728 316.5,206.5C 316.611,205.883 316.944,205.383 317.5,205C 328.821,204.167 340.154,203.667 351.5,203.5 Z"/></g>
<g><path style="opacity:1" fill="#fa8383" d="M 351.5,203.5 C 359.5,203.5 367.5,203.5 375.5,203.5C 390.026,204.826 404.692,206.159 419.5,207.5C 421.806,207.993 424.139,208.326 426.5,208.5C 427.391,209.11 428.391,209.443 429.5,209.5C 431.548,211.898 433.381,214.564 435,217.5C 440.361,240.05 440.861,262.716 436.5,285.5C 435.833,287.5 435.167,289.5 434.5,291.5C 432.766,294.2 430.432,296.2 427.5,297.5C 423.998,298.917 420.331,299.584 416.5,299.5C 386.898,302.622 357.231,303.289 327.5,301.5C 323.629,301.815 319.962,301.482 316.5,300.5C 312.079,299.055 307.412,298.222 302.5,298C 299.486,297.084 296.819,295.584 294.5,293.5C 293.537,290.256 292.204,287.256 290.5,284.5C 289.659,282.621 289.325,280.621 289.5,278.5C 288.813,262.843 288.479,247.176 288.5,231.5C 290.011,228.456 290.678,225.122 290.5,221.5C 292.609,216.309 295.942,211.976 300.5,208.5C 305.598,207.043 310.931,206.376 316.5,206.5C 328.333,205.728 340,204.728 351.5,203.5 Z"/></g>
<g><path style="opacity:1" fill="#b9abaa" d="M 375.5,203.5 C 390.235,203.617 404.901,204.617 419.5,206.5C 419.5,206.833 419.5,207.167 419.5,207.5C 404.692,206.159 390.026,204.826 375.5,203.5 Z"/></g>
<g><path style="opacity:1" fill="#585957" d="M 419.5,207.5 C 419.5,207.167 419.5,206.833 419.5,206.5C 422.152,206.41 424.485,207.076 426.5,208.5C 424.139,208.326 421.806,207.993 419.5,207.5 Z"/></g>
<g><path style="opacity:1" fill="#c0b0af" d="M 300.5,208.5 C 295.942,211.976 292.609,216.309 290.5,221.5C 291.017,214.839 294.35,210.506 300.5,208.5 Z"/></g>
<g><path style="opacity:1" fill="#7b7775" d="M 348.5,220.5 C 345.763,220.401 343.096,220.735 340.5,221.5C 341.492,219.974 342.992,219.307 345,219.5C 346.385,219.514 347.551,219.848 348.5,220.5 Z"/></g>
<g><path style="opacity:1" fill="#040404" d="M 348.5,220.5 C 348.5,221.167 348.833,221.5 349.5,221.5C 351.181,223.008 353.181,224.008 355.5,224.5C 358.008,226.924 361.008,228.59 364.5,229.5C 366.336,231.588 368.669,232.921 371.5,233.5C 371.973,234.906 372.973,235.573 374.5,235.5C 376.181,237.008 378.181,238.008 380.5,238.5C 382.336,240.588 384.669,241.921 387.5,242.5C 390.24,244.56 393.24,246.226 396.5,247.5C 400.168,249.392 401.335,252.392 400,256.5C 397.985,257.697 396.151,259.03 394.5,260.5C 391.669,261.079 389.336,262.412 387.5,264.5C 382.649,266.089 378.315,268.422 374.5,271.5C 372.938,271.733 371.605,272.4 370.5,273.5C 367.996,274.584 365.663,275.917 363.5,277.5C 360.669,278.079 358.336,279.412 356.5,281.5C 356.167,281.5 355.833,281.5 355.5,281.5C 352.6,282.443 350.267,284.11 348.5,286.5C 346.167,286.5 343.833,286.5 341.5,286.5C 340.496,285.317 339.662,283.984 339,282.5C 338.333,262.833 338.333,243.167 339,223.5C 339.717,222.956 340.217,222.289 340.5,221.5C 343.096,220.735 345.763,220.401 348.5,220.5 Z"/></g>
<g><path style="opacity:1" fill="#b9aaa8" d="M 349.5,221.5 C 352.089,221.461 354.089,222.461 355.5,224.5C 353.181,224.008 351.181,223.008 349.5,221.5 Z"/></g>
<g><path style="opacity:1" fill="#e3b0b0" d="M 340.5,221.5 C 340.217,222.289 339.717,222.956 339,223.5C 338.333,243.167 338.333,262.833 339,282.5C 339.662,283.984 340.496,285.317 341.5,286.5C 339.589,286.426 338.422,285.426 338,283.5C 337.333,263.167 337.333,242.833 338,222.5C 338.671,221.748 339.504,221.414 340.5,221.5 Z"/></g>
<g><path style="opacity:1" fill="#7f7a78" d="M 290.5,221.5 C 290.678,225.122 290.011,228.456 288.5,231.5C 288.322,227.878 288.989,224.544 290.5,221.5 Z"/></g>
<g><path style="opacity:1" fill="#b49d9c" d="M 364.5,229.5 C 367.578,229.587 369.911,230.92 371.5,233.5C 368.669,232.921 366.336,231.588 364.5,229.5 Z"/></g>
<g><path style="opacity:1" fill="#978f8e" d="M 374.5,235.5 C 377.089,235.461 379.089,236.461 380.5,238.5C 378.181,238.008 376.181,237.008 374.5,235.5 Z"/></g>
<g><path style="opacity:1" fill="#979493" d="M 380.5,238.5 C 383.326,238.998 385.66,240.331 387.5,242.5C 384.669,241.921 382.336,240.588 380.5,238.5 Z"/></g>
<g><path style="opacity:1" fill="#cab6b5" d="M 288.5,231.5 C 288.479,247.176 288.813,262.843 289.5,278.5C 287.968,269.552 287.302,260.385 287.5,251C 287.5,244.325 287.834,237.825 288.5,231.5 Z"/></g>
<g><path style="opacity:1" fill="#a49796" d="M 429.5,209.5 C 432.845,210.68 435.011,213.013 436,216.5C 437.957,222.705 439.291,229.038 440,235.5C 440.667,247.5 440.667,259.5 440,271.5C 439.513,276.465 438.346,281.132 436.5,285.5C 440.861,262.716 440.361,240.05 435,217.5C 433.381,214.564 431.548,211.898 429.5,209.5 Z"/></g>
<g><path style="opacity:1" fill="#b0a9a8" d="M 396.5,247.5 C 402.4,249.145 403.733,252.645 400.5,258C 398.783,259.559 396.783,260.392 394.5,260.5C 396.151,259.03 397.985,257.697 400,256.5C 401.335,252.392 400.168,249.392 396.5,247.5 Z"/></g>
<g><path style="opacity:1" fill="#b49e9d" d="M 387.5,264.5 C 383.621,267.607 379.288,269.941 374.5,271.5C 378.315,268.422 382.649,266.089 387.5,264.5 Z"/></g>
<g><path style="opacity:1" fill="#b5aaa9" d="M 370.5,273.5 C 368.948,276.112 366.614,277.445 363.5,277.5C 365.663,275.917 367.996,274.584 370.5,273.5 Z"/></g>
<g><path style="opacity:1" fill="#a7a1a0" d="M 363.5,277.5 C 361.66,279.669 359.326,281.002 356.5,281.5C 358.336,279.412 360.669,278.079 363.5,277.5 Z"/></g>
<g><path style="opacity:1" fill="#d0b9b8" d="M 355.5,281.5 C 353.772,283.877 351.439,285.544 348.5,286.5C 350.267,284.11 352.6,282.443 355.5,281.5 Z"/></g>
<g><path style="opacity:1" fill="#9d9493" d="M 290.5,284.5 C 292.204,287.256 293.537,290.256 294.5,293.5C 291.642,291.288 290.309,288.288 290.5,284.5 Z"/></g>
<g><path style="opacity:1" fill="#b39d9c" d="M 294.5,293.5 C 296.819,295.584 299.486,297.084 302.5,298C 307.412,298.222 312.079,299.055 316.5,300.5C 309.57,300.734 302.904,299.567 296.5,297C 295.177,296.184 294.511,295.017 294.5,293.5 Z"/></g>
<g><path style="opacity:1" fill="#c2abaa" d="M 434.5,291.5 C 433.998,295.59 431.665,297.59 427.5,297.5C 430.432,296.2 432.766,294.2 434.5,291.5 Z"/></g>
<g><path style="opacity:1" fill="#837a79" d="M 416.5,299.5 C 416.082,300.222 415.416,300.722 414.5,301C 387.884,303.397 361.217,304.063 334.5,303C 331.964,302.814 329.631,302.314 327.5,301.5C 357.231,303.289 386.898,302.622 416.5,299.5 Z"/></g>
<g><path style="opacity:0.933" fill="#bdbdbd" d="M 309.5,323.5 C 310.489,328.975 310.822,334.642 310.5,340.5C 348.833,340.5 387.167,340.5 425.5,340.5C 387.004,341.499 348.337,341.832 309.5,341.5C 309.5,335.5 309.5,329.5 309.5,323.5 Z"/></g>
</svg>
